<mxfile host="app.diagrams.net" modified="2022-08-12T03:49:43.661Z" agent="5.0 (Windows)" etag="TyjrSXx8ahO2MTlLi8IW" version="20.2.3" type="github">
  <diagram id="-nrLwhiIJtyl0Kn61Sq1" name="Page-1">
    <mxGraphModel dx="1422" dy="1949" grid="1" gridSize="10" guides="1" tooltips="1" connect="1" arrows="1" fold="1" page="1" pageScale="1" pageWidth="827" pageHeight="1169" math="0" shadow="0">
      <root>
        <mxCell id="0" />
        <mxCell id="1" parent="0" />
        <mxCell id="tkotz9j5eJrCiFmji3tr-35" style="edgeStyle=orthogonalEdgeStyle;rounded=0;orthogonalLoop=1;jettySize=auto;html=1;" edge="1" parent="1" source="tkotz9j5eJrCiFmji3tr-36" target="tkotz9j5eJrCiFmji3tr-38">
          <mxGeometry relative="1" as="geometry" />
        </mxCell>
        <mxCell id="tkotz9j5eJrCiFmji3tr-36" value="Выполнение перевозки" style="points=[[0.25,0,0],[0.5,0,0],[0.75,0,0],[1,0.25,0],[1,0.5,0],[1,0.75,0],[0.75,1,0],[0.5,1,0],[0.25,1,0],[0,0.75,0],[0,0.5,0],[0,0.25,0]];shape=mxgraph.bpmn.task;whiteSpace=wrap;rectStyle=rounded;size=10;taskMarker=abstract;" vertex="1" parent="1">
          <mxGeometry x="40" y="40" width="120" height="80" as="geometry" />
        </mxCell>
        <mxCell id="tkotz9j5eJrCiFmji3tr-37" style="edgeStyle=orthogonalEdgeStyle;rounded=0;orthogonalLoop=1;jettySize=auto;html=1;exitX=1;exitY=0.5;exitDx=0;exitDy=0;exitPerimeter=0;entryX=0;entryY=0.5;entryDx=0;entryDy=0;entryPerimeter=0;" edge="1" parent="1" source="tkotz9j5eJrCiFmji3tr-38" target="tkotz9j5eJrCiFmji3tr-44">
          <mxGeometry relative="1" as="geometry" />
        </mxCell>
        <mxCell id="tkotz9j5eJrCiFmji3tr-38" value="Пробег" style="points=[[0.25,0,0],[0.5,0,0],[0.75,0,0],[1,0.25,0],[1,0.5,0],[1,0.75,0],[0.75,1,0],[0.5,1,0],[0.25,1,0],[0,0.75,0],[0,0.5,0],[0,0.25,0]];shape=mxgraph.bpmn.task;whiteSpace=wrap;rectStyle=rounded;size=10;taskMarker=abstract;" vertex="1" parent="1">
          <mxGeometry x="220" y="40" width="120" height="80" as="geometry" />
        </mxCell>
        <mxCell id="tkotz9j5eJrCiFmji3tr-39" style="edgeStyle=orthogonalEdgeStyle;rounded=0;orthogonalLoop=1;jettySize=auto;html=1;exitX=1;exitY=0.5;exitDx=0;exitDy=0;exitPerimeter=0;entryX=0;entryY=0.5;entryDx=0;entryDy=0;entryPerimeter=0;" edge="1" parent="1" source="tkotz9j5eJrCiFmji3tr-40" target="tkotz9j5eJrCiFmji3tr-46">
          <mxGeometry relative="1" as="geometry" />
        </mxCell>
        <mxCell id="tkotz9j5eJrCiFmji3tr-40" value="Формирование состава на обслуживание" style="points=[[0.25,0,0],[0.5,0,0],[0.75,0,0],[1,0.25,0],[1,0.5,0],[1,0.75,0],[0.75,1,0],[0.5,1,0],[0.25,1,0],[0,0.75,0],[0,0.5,0],[0,0.25,0]];shape=mxgraph.bpmn.task;whiteSpace=wrap;rectStyle=rounded;size=10;taskMarker=abstract;" vertex="1" parent="1">
          <mxGeometry x="510" y="40" width="120" height="80" as="geometry" />
        </mxCell>
        <mxCell id="tkotz9j5eJrCiFmji3tr-41" style="edgeStyle=orthogonalEdgeStyle;rounded=0;orthogonalLoop=1;jettySize=auto;html=1;exitX=1;exitY=0.5;exitDx=0;exitDy=0;exitPerimeter=0;entryX=0;entryY=0.5;entryDx=0;entryDy=0;entryPerimeter=0;" edge="1" parent="1" source="tkotz9j5eJrCiFmji3tr-42" target="tkotz9j5eJrCiFmji3tr-52">
          <mxGeometry relative="1" as="geometry" />
        </mxCell>
        <mxCell id="tkotz9j5eJrCiFmji3tr-42" value="Инспекция оборудования (вагонов/узлов)" style="points=[[0.25,0,0],[0.5,0,0],[0.75,0,0],[1,0.25,0],[1,0.5,0],[1,0.75,0],[0.75,1,0],[0.5,1,0],[0.25,1,0],[0,0.75,0],[0,0.5,0],[0,0.25,0]];shape=mxgraph.bpmn.task;whiteSpace=wrap;rectStyle=rounded;size=10;taskMarker=abstract;" vertex="1" parent="1">
          <mxGeometry x="370" y="140" width="120" height="80" as="geometry" />
        </mxCell>
        <mxCell id="tkotz9j5eJrCiFmji3tr-43" style="edgeStyle=orthogonalEdgeStyle;rounded=0;orthogonalLoop=1;jettySize=auto;html=1;exitX=1;exitY=0.5;exitDx=0;exitDy=0;exitPerimeter=0;entryX=0;entryY=0.5;entryDx=0;entryDy=0;entryPerimeter=0;" edge="1" parent="1" source="tkotz9j5eJrCiFmji3tr-44" target="tkotz9j5eJrCiFmji3tr-40">
          <mxGeometry relative="1" as="geometry" />
        </mxCell>
        <mxCell id="tkotz9j5eJrCiFmji3tr-44" value="Необходимость ТО?" style="points=[[0.25,0,0],[0.5,0,0],[0.75,0,0],[1,0.25,0],[1,0.5,0],[1,0.75,0],[0.75,1,0],[0.5,1,0],[0.25,1,0],[0,0.75,0],[0,0.5,0],[0,0.25,0]];shape=mxgraph.bpmn.task;whiteSpace=wrap;rectStyle=rounded;size=10;taskMarker=abstract;" vertex="1" parent="1">
          <mxGeometry x="370" y="40" width="120" height="80" as="geometry" />
        </mxCell>
        <mxCell id="tkotz9j5eJrCiFmji3tr-45" style="edgeStyle=orthogonalEdgeStyle;rounded=0;orthogonalLoop=1;jettySize=auto;html=1;exitX=1;exitY=0.5;exitDx=0;exitDy=0;exitPerimeter=0;entryX=0;entryY=0.5;entryDx=0;entryDy=0;entryPerimeter=0;" edge="1" parent="1" source="tkotz9j5eJrCiFmji3tr-46" target="tkotz9j5eJrCiFmji3tr-48">
          <mxGeometry relative="1" as="geometry" />
        </mxCell>
        <mxCell id="tkotz9j5eJrCiFmji3tr-46" value="Проведение инспекции состава: локомотивов + вагонов" style="points=[[0.25,0,0],[0.5,0,0],[0.75,0,0],[1,0.25,0],[1,0.5,0],[1,0.75,0],[0.75,1,0],[0.5,1,0],[0.25,1,0],[0,0.75,0],[0,0.5,0],[0,0.25,0]];shape=mxgraph.bpmn.task;whiteSpace=wrap;rectStyle=rounded;size=10;taskMarker=abstract;" vertex="1" parent="1">
          <mxGeometry x="680" y="40" width="120" height="80" as="geometry" />
        </mxCell>
        <mxCell id="tkotz9j5eJrCiFmji3tr-47" style="edgeStyle=orthogonalEdgeStyle;rounded=0;orthogonalLoop=1;jettySize=auto;html=1;exitX=1;exitY=0.5;exitDx=0;exitDy=0;exitPerimeter=0;entryX=0;entryY=0.5;entryDx=0;entryDy=0;entryPerimeter=0;" edge="1" parent="1" source="tkotz9j5eJrCiFmji3tr-48" target="tkotz9j5eJrCiFmji3tr-50">
          <mxGeometry relative="1" as="geometry" />
        </mxCell>
        <mxCell id="tkotz9j5eJrCiFmji3tr-48" value="Проведение обслуживания" style="points=[[0.25,0,0],[0.5,0,0],[0.75,0,0],[1,0.25,0],[1,0.5,0],[1,0.75,0],[0.75,1,0],[0.5,1,0],[0.25,1,0],[0,0.75,0],[0,0.5,0],[0,0.25,0]];shape=mxgraph.bpmn.task;whiteSpace=wrap;rectStyle=rounded;size=10;taskMarker=abstract;" vertex="1" parent="1">
          <mxGeometry x="860" y="90" width="120" height="80" as="geometry" />
        </mxCell>
        <mxCell id="tkotz9j5eJrCiFmji3tr-49" value="Not OK" style="edgeStyle=orthogonalEdgeStyle;rounded=0;orthogonalLoop=1;jettySize=auto;html=1;exitX=0.5;exitY=0;exitDx=0;exitDy=0;exitPerimeter=0;entryX=0.5;entryY=0;entryDx=0;entryDy=0;entryPerimeter=0;" edge="1" parent="1" source="tkotz9j5eJrCiFmji3tr-50" target="tkotz9j5eJrCiFmji3tr-48">
          <mxGeometry relative="1" as="geometry" />
        </mxCell>
        <mxCell id="tkotz9j5eJrCiFmji3tr-50" value="Приемочная инспекция" style="points=[[0.25,0,0],[0.5,0,0],[0.75,0,0],[1,0.25,0],[1,0.5,0],[1,0.75,0],[0.75,1,0],[0.5,1,0],[0.25,1,0],[0,0.75,0],[0,0.5,0],[0,0.25,0]];shape=mxgraph.bpmn.task;whiteSpace=wrap;rectStyle=rounded;size=10;taskMarker=abstract;" vertex="1" parent="1">
          <mxGeometry x="1040" y="90" width="120" height="80" as="geometry" />
        </mxCell>
        <mxCell id="tkotz9j5eJrCiFmji3tr-51" style="edgeStyle=orthogonalEdgeStyle;rounded=0;orthogonalLoop=1;jettySize=auto;html=1;exitX=1;exitY=0.5;exitDx=0;exitDy=0;exitPerimeter=0;entryX=0;entryY=0.5;entryDx=0;entryDy=0;entryPerimeter=0;" edge="1" parent="1" source="tkotz9j5eJrCiFmji3tr-52" target="tkotz9j5eJrCiFmji3tr-48">
          <mxGeometry relative="1" as="geometry">
            <mxPoint x="850" y="150" as="targetPoint" />
          </mxGeometry>
        </mxCell>
        <mxCell id="tkotz9j5eJrCiFmji3tr-52" value="Проведение инспекции оборудования (вагонов/узлов)" style="points=[[0.25,0,0],[0.5,0,0],[0.75,0,0],[1,0.25,0],[1,0.5,0],[1,0.75,0],[0.75,1,0],[0.5,1,0],[0.25,1,0],[0,0.75,0],[0,0.5,0],[0,0.25,0]];shape=mxgraph.bpmn.task;whiteSpace=wrap;rectStyle=rounded;size=10;taskMarker=abstract;" vertex="1" parent="1">
          <mxGeometry x="680" y="140" width="120" height="80" as="geometry" />
        </mxCell>
        <mxCell id="tkotz9j5eJrCiFmji3tr-53" value="Журнал показаний приборов: чтения RFID меток" style="shape=mxgraph.bpmn.data;labelPosition=center;verticalLabelPosition=bottom;align=center;verticalAlign=top;whiteSpace=wrap;size=15;html=1;" vertex="1" parent="1">
          <mxGeometry x="20" y="160" width="50" height="60" as="geometry" />
        </mxCell>
        <mxCell id="tkotz9j5eJrCiFmji3tr-54" value="Журнал трекинга единиц подвижного состава" style="shape=mxgraph.bpmn.data;labelPosition=center;verticalLabelPosition=bottom;align=center;verticalAlign=top;whiteSpace=wrap;size=15;html=1;" vertex="1" parent="1">
          <mxGeometry x="100" y="160" width="50" height="60" as="geometry" />
        </mxCell>
        <mxCell id="tkotz9j5eJrCiFmji3tr-55" value="Журнал показаний оборудования (пробег/км)" style="shape=mxgraph.bpmn.data;labelPosition=center;verticalLabelPosition=bottom;align=center;verticalAlign=top;whiteSpace=wrap;size=15;html=1;" vertex="1" parent="1">
          <mxGeometry x="250" y="160" width="50" height="60" as="geometry" />
        </mxCell>
        <mxCell id="tkotz9j5eJrCiFmji3tr-56" value="Правило регламента по обслуживанию" style="shape=mxgraph.bpmn.data;labelPosition=center;verticalLabelPosition=bottom;align=center;verticalAlign=top;whiteSpace=wrap;size=15;html=1;" vertex="1" parent="1">
          <mxGeometry x="405" y="-110" width="50" height="60" as="geometry" />
        </mxCell>
        <mxCell id="tkotz9j5eJrCiFmji3tr-57" value="Нормы характеристик оборудования" style="shape=mxgraph.bpmn.data;labelPosition=center;verticalLabelPosition=bottom;align=center;verticalAlign=top;whiteSpace=wrap;size=15;html=1;" vertex="1" parent="1">
          <mxGeometry x="400" y="240" width="50" height="60" as="geometry" />
        </mxCell>
        <mxCell id="tkotz9j5eJrCiFmji3tr-58" value="Журнал формирования составов" style="shape=mxgraph.bpmn.data;labelPosition=center;verticalLabelPosition=bottom;align=center;verticalAlign=top;whiteSpace=wrap;size=15;html=1;" vertex="1" parent="1">
          <mxGeometry x="545" y="-110" width="50" height="60" as="geometry" />
        </mxCell>
        <mxCell id="tkotz9j5eJrCiFmji3tr-59" value="Наряд на инспекцию/диагностику оборудования" style="shape=mxgraph.bpmn.data;labelPosition=center;verticalLabelPosition=bottom;align=center;verticalAlign=top;whiteSpace=wrap;size=15;html=1;" vertex="1" parent="1">
          <mxGeometry x="700" y="-120" width="50" height="60" as="geometry" />
        </mxCell>
        <mxCell id="tkotz9j5eJrCiFmji3tr-60" value="Наряд-задание" style="shape=mxgraph.bpmn.data;labelPosition=center;verticalLabelPosition=bottom;align=center;verticalAlign=top;whiteSpace=wrap;size=15;html=1;" vertex="1" parent="1">
          <mxGeometry x="895" y="-120" width="50" height="60" as="geometry" />
        </mxCell>
      </root>
    </mxGraphModel>
  </diagram>
</mxfile>
